solid 
   facet normal 0.000000e+00 -0.000000e+00 1.000000e+00
      outer loop
         vertex -2.886751e+00 5.000000e+00 6.000000e-01
         vertex -8.591992e-01 3.392901e+00 6.000000e-01
         vertex 2.886751e+00 5.000000e+00 6.000000e-01
      endloop
   endfacet
   facet normal 0.000000e+00 -0.000000e+00 1.000000e+00
      outer loop
         vertex -8.591992e-01 3.392901e+00 6.000000e-01
         vertex 2.890277e-01 3.488046e+00 6.000000e-01
         vertex 2.886751e+00 5.000000e+00 6.000000e-01
      endloop
   endfacet
   facet normal -0.000000e+00 0.000000e+00 1.000000e+00
      outer loop
         vertex 2.886751e+00 5.000000e+00 6.000000e-01
         vertex 2.370486e+00 2.575034e+00 6.000000e-01
         vertex 5.773503e+00 -3.815675e-15 6.000000e-01
      endloop
   endfacet
   facet normal -0.000000e+00 -0.000000e+00 1.000000e+00
      outer loop
         vertex 2.370486e+00 2.575034e+00 6.000000e-01
         vertex 3.078158e+00 1.665816e+00 6.000000e-01
         vertex 5.773503e+00 -3.815675e-15 6.000000e-01
      endloop
   endfacet
   facet normal -0.000000e+00 0.000000e+00 1.000000e+00
      outer loop
         vertex 5.773503e+00 -3.815675e-15 6.000000e-01
         vertex 3.452265e+00 -5.760810e-01 6.000000e-01
         vertex 2.886751e+00 -5.000000e+00 6.000000e-01
      endloop
   endfacet
   facet normal -0.000000e+00 0.000000e+00 1.000000e+00
      outer loop
         vertex 3.452265e+00 -5.760810e-01 6.000000e-01
         vertex 3.078158e+00 -1.665816e+00 6.000000e-01
         vertex 2.886751e+00 -5.000000e+00 6.000000e-01
      endloop
   endfacet
   facet normal 0.000000e+00 0.000000e+00 1.000000e+00
      outer loop
         vertex 2.886751e+00 -5.000000e+00 6.000000e-01
         vertex 1.405934e+00 -3.205207e+00 6.000000e-01
         vertex -2.886751e+00 -5.000000e+00 6.000000e-01
      endloop
   endfacet
   facet normal -0.000000e+00 0.000000e+00 1.000000e+00
      outer loop
         vertex 1.405934e+00 -3.205207e+00 6.000000e-01
         vertex 2.890277e-01 -3.488046e+00 6.000000e-01
         vertex -2.886751e+00 -5.000000e+00 6.000000e-01
      endloop
   endfacet
   facet normal 0.000000e+00 0.000000e+00 1.000000e+00
      outer loop
         vertex -2.886751e+00 -5.000000e+00 6.000000e-01
         vertex -1.914319e+00 -2.930083e+00 6.000000e-01
         vertex -5.773503e+00 2.039318e-15 6.000000e-01
      endloop
   endfacet
   facet normal 0.000000e+00 0.000000e+00 1.000000e+00
      outer loop
         vertex -1.914319e+00 -2.930083e+00 6.000000e-01
         vertex -2.761992e+00 -2.149745e+00 6.000000e-01
         vertex -5.773503e+00 2.039318e-15 6.000000e-01
      endloop
   endfacet
   facet normal 0.000000e+00 -0.000000e+00 1.000000e+00
      outer loop
         vertex -5.773503e+00 2.039318e-15 6.000000e-01
         vertex -3.500000e+00 -3.673941e-17 6.000000e-01
         vertex -2.886751e+00 5.000000e+00 6.000000e-01
      endloop
   endfacet
   facet normal 0.000000e+00 -0.000000e+00 1.000000e+00
      outer loop
         vertex -3.500000e+00 -3.673941e-17 6.000000e-01
         vertex -3.310360e+00 1.136448e+00 6.000000e-01
         vertex -2.886751e+00 5.000000e+00 6.000000e-01
      endloop
   endfacet
   facet normal 0.000000e+00 -0.000000e+00 1.000000e+00
      outer loop
         vertex -2.886751e+00 5.000000e+00 6.000000e-01
         vertex -2.761992e+00 2.149745e+00 6.000000e-01
         vertex -1.914319e+00 2.930083e+00 6.000000e-01
      endloop
   endfacet
   facet normal 0.000000e+00 0.000000e+00 1.000000e+00
      outer loop
         vertex -2.761992e+00 2.149745e+00 6.000000e-01
         vertex -2.886751e+00 5.000000e+00 6.000000e-01
         vertex -3.310360e+00 1.136448e+00 6.000000e-01
      endloop
   endfacet
   facet normal 0.000000e+00 0.000000e+00 1.000000e+00
      outer loop
         vertex -3.500000e+00 -3.673941e-17 6.000000e-01
         vertex -5.773503e+00 2.039318e-15 6.000000e-01
         vertex -3.310360e+00 -1.136448e+00 6.000000e-01
      endloop
   endfacet
   facet normal 0.000000e+00 0.000000e+00 1.000000e+00
      outer loop
         vertex -5.773503e+00 2.039318e-15 6.000000e-01
         vertex -2.761992e+00 -2.149745e+00 6.000000e-01
         vertex -3.310360e+00 -1.136448e+00 6.000000e-01
      endloop
   endfacet
   facet normal 0.000000e+00 0.000000e+00 1.000000e+00
      outer loop
         vertex -1.914319e+00 -2.930083e+00 6.000000e-01
         vertex -2.886751e+00 -5.000000e+00 6.000000e-01
         vertex -8.591992e-01 -3.392901e+00 6.000000e-01
      endloop
   endfacet
   facet normal 0.000000e+00 0.000000e+00 1.000000e+00
      outer loop
         vertex -2.886751e+00 -5.000000e+00 6.000000e-01
         vertex 2.890277e-01 -3.488046e+00 6.000000e-01
         vertex -8.591992e-01 -3.392901e+00 6.000000e-01
      endloop
   endfacet
   facet normal 0.000000e+00 0.000000e+00 1.000000e+00
      outer loop
         vertex 1.405934e+00 -3.205207e+00 6.000000e-01
         vertex 2.886751e+00 -5.000000e+00 6.000000e-01
         vertex 2.370486e+00 -2.575034e+00 6.000000e-01
      endloop
   endfacet
   facet normal 0.000000e+00 0.000000e+00 1.000000e+00
      outer loop
         vertex 2.886751e+00 -5.000000e+00 6.000000e-01
         vertex 3.078158e+00 -1.665816e+00 6.000000e-01
         vertex 2.370486e+00 -2.575034e+00 6.000000e-01
      endloop
   endfacet
   facet normal 0.000000e+00 0.000000e+00 1.000000e+00
      outer loop
         vertex 3.452265e+00 -5.760810e-01 6.000000e-01
         vertex 5.773503e+00 -3.815675e-15 6.000000e-01
         vertex 3.452265e+00 5.760810e-01 6.000000e-01
      endloop
   endfacet
   facet normal 0.000000e+00 0.000000e+00 1.000000e+00
      outer loop
         vertex 5.773503e+00 -3.815675e-15 6.000000e-01
         vertex 3.078158e+00 1.665816e+00 6.000000e-01
         vertex 3.452265e+00 5.760810e-01 6.000000e-01
      endloop
   endfacet
   facet normal 0.000000e+00 0.000000e+00 1.000000e+00
      outer loop
         vertex 2.370486e+00 2.575034e+00 6.000000e-01
         vertex 2.886751e+00 5.000000e+00 6.000000e-01
         vertex 1.405934e+00 3.205207e+00 6.000000e-01
      endloop
   endfacet
   facet normal 0.000000e+00 0.000000e+00 1.000000e+00
      outer loop
         vertex 1.405934e+00 3.205207e+00 6.000000e-01
         vertex 2.886751e+00 5.000000e+00 6.000000e-01
         vertex 2.890277e-01 3.488046e+00 6.000000e-01
      endloop
   endfacet
   facet normal 0.000000e+00 0.000000e+00 1.000000e+00
      outer loop
         vertex -8.591992e-01 3.392901e+00 6.000000e-01
         vertex -2.886751e+00 5.000000e+00 6.000000e-01
         vertex -1.914319e+00 2.930083e+00 6.000000e-01
      endloop
   endfacet
   facet normal -4.681111e-01 2.533291e-01 8.465792e-01
      outer loop
         vertex -1.121675e+00 3.850715e-01 3.299640e+00
         vertex -9.358671e-01 7.284146e-01 3.299640e+00
         vertex -1.756323e+00 1.367001e+00 2.654884e+00
      endloop
   endfacet
   facet normal -4.681112e-01 2.533290e-01 8.465792e-01
      outer loop
         vertex -1.121675e+00 3.850715e-01 3.299640e+00
         vertex -1.756323e+00 1.367001e+00 2.654884e+00
         vertex -2.105025e+00 7.226561e-01 2.654884e+00
      endloop
   endfacet
   facet normal -3.604918e-01 3.915984e-01 8.465792e-01
      outer loop
         vertex -9.358671e-01 7.284146e-01 3.299640e+00
         vertex -6.486434e-01 9.928226e-01 3.299640e+00
         vertex -1.217296e+00 1.863210e+00 2.654884e+00
      endloop
   endfacet
   facet normal -3.604918e-01 3.915985e-01 8.465792e-01
      outer loop
         vertex -9.358671e-01 7.284146e-01 3.299640e+00
         vertex -1.217296e+00 1.863210e+00 2.654884e+00
         vertex -1.756323e+00 1.367001e+00 2.654884e+00
      endloop
   endfacet
   facet normal -2.138075e-01 4.874320e-01 8.465792e-01
      outer loop
         vertex -6.486434e-01 9.928226e-01 3.299640e+00
         vertex -2.911291e-01 1.149643e+00 3.299640e+00
         vertex -5.463562e-01 2.157512e+00 2.654884e+00
      endloop
   endfacet
   facet normal -2.138076e-01 4.874320e-01 8.465792e-01
      outer loop
         vertex -6.486434e-01 9.928226e-01 3.299640e+00
         vertex -5.463562e-01 2.157512e+00 2.654884e+00
         vertex -1.217296e+00 1.863210e+00 2.654884e+00
      endloop
   endfacet
   facet normal -4.395401e-02 5.304448e-01 8.465792e-01
      outer loop
         vertex -2.911291e-01 1.149643e+00 3.299640e+00
         vertex 9.793350e-02 1.181882e+00 3.299640e+00
         vertex 1.837898e-01 2.218014e+00 2.654884e+00
      endloop
   endfacet
   facet normal -4.395387e-02 5.304448e-01 8.465792e-01
      outer loop
         vertex -2.911291e-01 1.149643e+00 3.299640e+00
         vertex 1.837898e-01 2.218014e+00 2.654884e+00
         vertex -5.463562e-01 2.157512e+00 2.654884e+00
      endloop
   endfacet
   facet normal 1.306629e-01 5.159757e-01 8.465792e-01
      outer loop
         vertex 9.793350e-02 1.181882e+00 3.299640e+00
         vertex 4.763835e-01 1.086045e+00 3.299640e+00
         vertex 8.940194e-01 2.038159e+00 2.654884e+00
      endloop
   endfacet
   facet normal 1.306628e-01 5.159757e-01 8.465792e-01
      outer loop
         vertex 9.793350e-02 1.181882e+00 3.299640e+00
         vertex 8.940194e-01 2.038159e+00 2.654884e+00
         vertex 1.837898e-01 2.218014e+00 2.654884e+00
      endloop
   endfacet
   facet normal 2.911201e-01 4.455926e-01 8.465792e-01
      outer loop
         vertex 4.763835e-01 1.086045e+00 3.299640e+00
         vertex 8.032100e-01 8.725187e-01 3.299640e+00
         vertex 1.507368e+00 1.637438e+00 2.654884e+00
      endloop
   endfacet
   facet normal 2.911201e-01 4.455926e-01 8.465792e-01
      outer loop
         vertex 4.763835e-01 1.086045e+00 3.299640e+00
         vertex 1.507368e+00 1.637438e+00 2.654884e+00
         vertex 8.940194e-01 2.038159e+00 2.654884e+00
      endloop
   endfacet
   facet normal 4.200301e-01 3.269225e-01 8.465792e-01
      outer loop
         vertex 8.032100e-01 8.725187e-01 3.299640e+00
         vertex 1.042996e+00 5.644413e-01 3.299640e+00
         vertex 1.957370e+00 1.059276e+00 2.654884e+00
      endloop
   endfacet
   facet normal 4.200301e-01 3.269226e-01 8.465792e-01
      outer loop
         vertex 8.032100e-01 8.725187e-01 3.299640e+00
         vertex 1.957370e+00 1.059276e+00 2.654884e+00
         vertex 1.507368e+00 1.637438e+00 2.654884e+00
      endloop
   endfacet
   facet normal 5.034233e-01 1.728255e-01 8.465792e-01
      outer loop
         vertex 1.042996e+00 5.644413e-01 3.299640e+00
         vertex 1.169758e+00 1.951980e-01 3.299640e+00
         vertex 2.195261e+00 3.663242e-01 2.654884e+00
      endloop
   endfacet
   facet normal 5.034233e-01 1.728254e-01 8.465792e-01
      outer loop
         vertex 1.042996e+00 5.644413e-01 3.299640e+00
         vertex 2.195261e+00 3.663242e-01 2.654884e+00
         vertex 1.957370e+00 1.059276e+00 2.654884e+00
      endloop
   endfacet
   facet normal 5.322628e-01 -0.000000e+00 8.465792e-01
      outer loop
         vertex 1.169758e+00 1.951980e-01 3.299640e+00
         vertex 1.169758e+00 -1.951980e-01 3.299640e+00
         vertex 2.195261e+00 -3.663242e-01 2.654884e+00
      endloop
   endfacet
   facet normal 5.322628e-01 -0.000000e+00 8.465792e-01
      outer loop
         vertex 1.169758e+00 1.951980e-01 3.299640e+00
         vertex 2.195261e+00 -3.663242e-01 2.654884e+00
         vertex 2.195261e+00 3.663242e-01 2.654884e+00
      endloop
   endfacet
   facet normal 5.034233e-01 -1.728255e-01 8.465792e-01
      outer loop
         vertex 1.169758e+00 -1.951980e-01 3.299640e+00
         vertex 1.042996e+00 -5.644413e-01 3.299640e+00
         vertex 1.957370e+00 -1.059276e+00 2.654884e+00
      endloop
   endfacet
   facet normal 5.034234e-01 -1.728254e-01 8.465792e-01
      outer loop
         vertex 1.169758e+00 -1.951980e-01 3.299640e+00
         vertex 1.957370e+00 -1.059276e+00 2.654884e+00
         vertex 2.195261e+00 -3.663242e-01 2.654884e+00
      endloop
   endfacet
   facet normal 4.200302e-01 -3.269225e-01 8.465792e-01
      outer loop
         vertex 1.042996e+00 -5.644413e-01 3.299640e+00
         vertex 8.032100e-01 -8.725187e-01 3.299640e+00
         vertex 1.507368e+00 -1.637438e+00 2.654884e+00
      endloop
   endfacet
   facet normal 4.200301e-01 -3.269225e-01 8.465792e-01
      outer loop
         vertex 1.042996e+00 -5.644413e-01 3.299640e+00
         vertex 1.507368e+00 -1.637438e+00 2.654884e+00
         vertex 1.957370e+00 -1.059276e+00 2.654884e+00
      endloop
   endfacet
   facet normal 2.911201e-01 -4.455926e-01 8.465792e-01
      outer loop
         vertex 8.032100e-01 -8.725187e-01 3.299640e+00
         vertex 4.763835e-01 -1.086045e+00 3.299640e+00
         vertex 8.940194e-01 -2.038159e+00 2.654884e+00
      endloop
   endfacet
   facet normal 2.911201e-01 -4.455926e-01 8.465792e-01
      outer loop
         vertex 8.032100e-01 -8.725187e-01 3.299640e+00
         vertex 8.940194e-01 -2.038159e+00 2.654884e+00
         vertex 1.507368e+00 -1.637438e+00 2.654884e+00
      endloop
   endfacet
   facet normal 1.306629e-01 -5.159757e-01 8.465792e-01
      outer loop
         vertex 4.763835e-01 -1.086045e+00 3.299640e+00
         vertex 9.793350e-02 -1.181882e+00 3.299640e+00
         vertex 1.837898e-01 -2.218014e+00 2.654884e+00
      endloop
   endfacet
   facet normal 1.306628e-01 -5.159757e-01 8.465792e-01
      outer loop
         vertex 4.763835e-01 -1.086045e+00 3.299640e+00
         vertex 1.837898e-01 -2.218014e+00 2.654884e+00
         vertex 8.940194e-01 -2.038159e+00 2.654884e+00
      endloop
   endfacet
   facet normal -4.395401e-02 -5.304448e-01 8.465792e-01
      outer loop
         vertex 9.793350e-02 -1.181882e+00 3.299640e+00
         vertex -2.911291e-01 -1.149643e+00 3.299640e+00
         vertex -5.463562e-01 -2.157512e+00 2.654884e+00
      endloop
   endfacet
   facet normal -4.395388e-02 -5.304448e-01 8.465792e-01
      outer loop
         vertex 9.793350e-02 -1.181882e+00 3.299640e+00
         vertex -5.463562e-01 -2.157512e+00 2.654884e+00
         vertex 1.837898e-01 -2.218014e+00 2.654884e+00
      endloop
   endfacet
   facet normal -2.138075e-01 -4.874321e-01 8.465792e-01
      outer loop
         vertex -2.911291e-01 -1.149643e+00 3.299640e+00
         vertex -6.486434e-01 -9.928226e-01 3.299640e+00
         vertex -1.217296e+00 -1.863210e+00 2.654884e+00
      endloop
   endfacet
   facet normal -2.138076e-01 -4.874320e-01 8.465792e-01
      outer loop
         vertex -2.911291e-01 -1.149643e+00 3.299640e+00
         vertex -1.217296e+00 -1.863210e+00 2.654884e+00
         vertex -5.463562e-01 -2.157512e+00 2.654884e+00
      endloop
   endfacet
   facet normal -3.604918e-01 -3.915984e-01 8.465792e-01
      outer loop
         vertex -6.486434e-01 -9.928226e-01 3.299640e+00
         vertex -9.358671e-01 -7.284146e-01 3.299640e+00
         vertex -1.756323e+00 -1.367001e+00 2.654884e+00
      endloop
   endfacet
   facet normal -3.604918e-01 -3.915985e-01 8.465792e-01
      outer loop
         vertex -6.486434e-01 -9.928226e-01 3.299640e+00
         vertex -1.756323e+00 -1.367001e+00 2.654884e+00
         vertex -1.217296e+00 -1.863210e+00 2.654884e+00
      endloop
   endfacet
   facet normal -4.681112e-01 -2.533291e-01 8.465792e-01
      outer loop
         vertex -9.358671e-01 -7.284146e-01 3.299640e+00
         vertex -1.121675e+00 -3.850715e-01 3.299640e+00
         vertex -2.105025e+00 -7.226561e-01 2.654884e+00
      endloop
   endfacet
   facet normal -4.681112e-01 -2.533290e-01 8.465792e-01
      outer loop
         vertex -9.358671e-01 -7.284146e-01 3.299640e+00
         vertex -2.105025e+00 -7.226561e-01 2.654884e+00
         vertex -1.756323e+00 -1.367001e+00 2.654884e+00
      endloop
   endfacet
   facet normal -6.715995e-01 3.634514e-01 6.456448e-01
      outer loop
         vertex -2.105025e+00 7.226561e-01 2.654884e+00
         vertex -1.756323e+00 1.367001e+00 2.654884e+00
         vertex -2.384622e+00 1.856026e+00 1.726043e+00
      endloop
   endfacet
   facet normal -6.715994e-01 3.634515e-01 6.456448e-01
      outer loop
         vertex -2.105025e+00 7.226561e-01 2.654884e+00
         vertex -2.384622e+00 1.856026e+00 1.726043e+00
         vertex -2.858067e+00 9.811756e-01 1.726043e+00
      endloop
   endfacet
   facet normal -5.171978e-01 5.618267e-01 6.456448e-01
      outer loop
         vertex -1.756323e+00 1.367001e+00 2.654884e+00
         vertex -1.217296e+00 1.863210e+00 2.654884e+00
         vertex -1.652766e+00 2.529747e+00 1.726043e+00
      endloop
   endfacet
   facet normal -5.171979e-01 5.618266e-01 6.456448e-01
      outer loop
         vertex -1.756323e+00 1.367001e+00 2.654884e+00
         vertex -1.652766e+00 2.529747e+00 1.726043e+00
         vertex -2.384622e+00 1.856026e+00 1.726043e+00
      endloop
   endfacet
   facet normal -3.067499e-01 6.993192e-01 6.456448e-01
      outer loop
         vertex -1.217296e+00 1.863210e+00 2.654884e+00
         vertex -5.463562e-01 2.157512e+00 2.654884e+00
         vertex -7.418071e-01 2.929330e+00 1.726043e+00
      endloop
   endfacet
   facet normal -3.067498e-01 6.993192e-01 6.456448e-01
      outer loop
         vertex -1.217296e+00 1.863210e+00 2.654884e+00
         vertex -7.418071e-01 2.929330e+00 1.726043e+00
         vertex -1.652766e+00 2.529747e+00 1.726043e+00
      endloop
   endfacet
   facet normal -6.306067e-02 7.610297e-01 6.456447e-01
      outer loop
         vertex -5.463562e-01 2.157512e+00 2.654884e+00
         vertex 1.837898e-01 2.218014e+00 2.654884e+00
         vertex 2.495379e-01 3.011475e+00 1.726043e+00
      endloop
   endfacet
   facet normal -6.306055e-02 7.610297e-01 6.456448e-01
      outer loop
         vertex -5.463562e-01 2.157512e+00 2.654884e+00
         vertex 2.495379e-01 3.011475e+00 1.726043e+00
         vertex -7.418071e-01 2.929330e+00 1.726043e+00
      endloop
   endfacet
   facet normal 1.874621e-01 7.402707e-01 6.456448e-01
      outer loop
         vertex 1.837898e-01 2.218014e+00 2.654884e+00
         vertex 8.940194e-01 2.038159e+00 2.654884e+00
         vertex 1.213842e+00 2.767280e+00 1.726043e+00
      endloop
   endfacet
   facet normal 1.874619e-01 7.402709e-01 6.456447e-01
      outer loop
         vertex 1.837898e-01 2.218014e+00 2.654884e+00
         vertex 1.213842e+00 2.767280e+00 1.726043e+00
         vertex 2.495379e-01 3.011475e+00 1.726043e+00
      endloop
   endfacet
   facet normal 4.176703e-01 6.392921e-01 6.456447e-01
      outer loop
         vertex 8.940194e-01 2.038159e+00 2.654884e+00
         vertex 1.507368e+00 1.637438e+00 2.654884e+00
         vertex 2.046607e+00 2.223208e+00 1.726043e+00
      endloop
   endfacet
   facet normal 4.176704e-01 6.392920e-01 6.456448e-01
      outer loop
         vertex 8.940194e-01 2.038159e+00 2.654884e+00
         vertex 2.046607e+00 2.223208e+00 1.726043e+00
         vertex 1.213842e+00 2.767280e+00 1.726043e+00
      endloop
   endfacet
   facet normal 6.026176e-01 4.690361e-01 6.456447e-01
      outer loop
         vertex 1.507368e+00 1.637438e+00 2.654884e+00
         vertex 1.957370e+00 1.059276e+00 2.654884e+00
         vertex 2.657590e+00 1.438216e+00 1.726043e+00
      endloop
   endfacet
   facet normal 6.026176e-01 4.690361e-01 6.456447e-01
      outer loop
         vertex 1.507368e+00 1.637438e+00 2.654884e+00
         vertex 2.657590e+00 1.438216e+00 1.726043e+00
         vertex 2.046607e+00 2.223208e+00 1.726043e+00
      endloop
   endfacet
   facet normal 7.222619e-01 2.479527e-01 6.456448e-01
      outer loop
         vertex 1.957370e+00 1.059276e+00 2.654884e+00
         vertex 2.195261e+00 3.663242e-01 2.654884e+00
         vertex 2.980583e+00 4.973713e-01 1.726043e+00
      endloop
   endfacet
   facet normal 7.222619e-01 2.479528e-01 6.456447e-01
      outer loop
         vertex 1.957370e+00 1.059276e+00 2.654884e+00
         vertex 2.980583e+00 4.973713e-01 1.726043e+00
         vertex 2.657590e+00 1.438216e+00 1.726043e+00
      endloop
   endfacet
   facet normal 7.636379e-01 -0.000000e+00 6.456448e-01
      outer loop
         vertex 2.195261e+00 3.663242e-01 2.654884e+00
         vertex 2.195261e+00 -3.663242e-01 2.654884e+00
         vertex 2.980583e+00 -4.973713e-01 1.726043e+00
      endloop
   endfacet
   facet normal 7.636379e-01 -0.000000e+00 6.456448e-01
      outer loop
         vertex 2.195261e+00 3.663242e-01 2.654884e+00
         vertex 2.980583e+00 -4.973713e-01 1.726043e+00
         vertex 2.980583e+00 4.973713e-01 1.726043e+00
      endloop
   endfacet
   facet normal 7.222619e-01 -2.479528e-01 6.456447e-01
      outer loop
         vertex 2.195261e+00 -3.663242e-01 2.654884e+00
         vertex 1.957370e+00 -1.059276e+00 2.654884e+00
         vertex 2.657590e+00 -1.438216e+00 1.726043e+00
      endloop
   endfacet
   facet normal 7.222619e-01 -2.479528e-01 6.456448e-01
      outer loop
         vertex 2.195261e+00 -3.663242e-01 2.654884e+00
         vertex 2.657590e+00 -1.438216e+00 1.726043e+00
         vertex 2.980583e+00 -4.973713e-01 1.726043e+00
      endloop
   endfacet
   facet normal 6.026176e-01 -4.690361e-01 6.456447e-01
      outer loop
         vertex 1.957370e+00 -1.059276e+00 2.654884e+00
         vertex 1.507368e+00 -1.637438e+00 2.654884e+00
         vertex 2.046607e+00 -2.223208e+00 1.726043e+00
      endloop
   endfacet
   facet normal 6.026176e-01 -4.690361e-01 6.456447e-01
      outer loop
         vertex 1.957370e+00 -1.059276e+00 2.654884e+00
         vertex 2.046607e+00 -2.223208e+00 1.726043e+00
         vertex 2.657590e+00 -1.438216e+00 1.726043e+00
      endloop
   endfacet
   facet normal 4.176703e-01 -6.392921e-01 6.456448e-01
      outer loop
         vertex 1.507368e+00 -1.637438e+00 2.654884e+00
         vertex 8.940194e-01 -2.038159e+00 2.654884e+00
         vertex 1.213842e+00 -2.767280e+00 1.726043e+00
      endloop
   endfacet
   facet normal 4.176704e-01 -6.392921e-01 6.456447e-01
      outer loop
         vertex 1.507368e+00 -1.637438e+00 2.654884e+00
         vertex 1.213842e+00 -2.767280e+00 1.726043e+00
         vertex 2.046607e+00 -2.223208e+00 1.726043e+00
      endloop
   endfacet
   facet normal 1.874621e-01 -7.402708e-01 6.456447e-01
      outer loop
         vertex 8.940194e-01 -2.038159e+00 2.654884e+00
         vertex 1.837898e-01 -2.218014e+00 2.654884e+00
         vertex 2.495379e-01 -3.011475e+00 1.726043e+00
      endloop
   endfacet
   facet normal 1.874619e-01 -7.402708e-01 6.456448e-01
      outer loop
         vertex 8.940194e-01 -2.038159e+00 2.654884e+00
         vertex 2.495379e-01 -3.011475e+00 1.726043e+00
         vertex 1.213842e+00 -2.767280e+00 1.726043e+00
      endloop
   endfacet
   facet normal -6.306067e-02 -7.610297e-01 6.456448e-01
      outer loop
         vertex 1.837898e-01 -2.218014e+00 2.654884e+00
         vertex -5.463562e-01 -2.157512e+00 2.654884e+00
         vertex -7.418071e-01 -2.929330e+00 1.726043e+00
      endloop
   endfacet
   facet normal -6.306056e-02 -7.610297e-01 6.456447e-01
      outer loop
         vertex 1.837898e-01 -2.218014e+00 2.654884e+00
         vertex -7.418071e-01 -2.929330e+00 1.726043e+00
         vertex 2.495379e-01 -3.011475e+00 1.726043e+00
      endloop
   endfacet
   facet normal -3.067499e-01 -6.993191e-01 6.456448e-01
      outer loop
         vertex -5.463562e-01 -2.157512e+00 2.654884e+00
         vertex -1.217296e+00 -1.863210e+00 2.654884e+00
         vertex -1.652766e+00 -2.529747e+00 1.726043e+00
      endloop
   endfacet
   facet normal -3.067499e-01 -6.993192e-01 6.456448e-01
      outer loop
         vertex -5.463562e-01 -2.157512e+00 2.654884e+00
         vertex -1.652766e+00 -2.529747e+00 1.726043e+00
         vertex -7.418071e-01 -2.929330e+00 1.726043e+00
      endloop
   endfacet
   facet normal -5.171979e-01 -5.618267e-01 6.456448e-01
      outer loop
         vertex -1.217296e+00 -1.863210e+00 2.654884e+00
         vertex -1.756323e+00 -1.367001e+00 2.654884e+00
         vertex -2.384622e+00 -1.856026e+00 1.726043e+00
      endloop
   endfacet
   facet normal -5.171979e-01 -5.618266e-01 6.456448e-01
      outer loop
         vertex -1.217296e+00 -1.863210e+00 2.654884e+00
         vertex -2.384622e+00 -1.856026e+00 1.726043e+00
         vertex -1.652766e+00 -2.529747e+00 1.726043e+00
      endloop
   endfacet
   facet normal -6.715995e-01 -3.634513e-01 6.456449e-01
      outer loop
         vertex -1.756323e+00 -1.367001e+00 2.654884e+00
         vertex -2.105025e+00 -7.226561e-01 2.654884e+00
         vertex -2.858067e+00 -9.811756e-01 1.726043e+00
      endloop
   endfacet
   facet normal -6.715995e-01 -3.634515e-01 6.456448e-01
      outer loop
         vertex -1.756323e+00 -1.367001e+00 2.654884e+00
         vertex -2.858067e+00 -9.811756e-01 1.726043e+00
         vertex -2.384622e+00 -1.856026e+00 1.726043e+00
      endloop
   endfacet
   facet normal -9.097694e-01 -1.518136e-01 3.863576e-01
      outer loop
         vertex -3.021796e+00 -4.757529e-16 1.726043e+00
         vertex -3.500000e+00 -3.673941e-17 6.000000e-01
         vertex -3.310360e+00 -1.136448e+00 6.000000e-01
      endloop
   endfacet
   facet normal -8.111817e-01 -4.389897e-01 3.863576e-01
      outer loop
         vertex -3.310360e+00 -1.136448e+00 6.000000e-01
         vertex -2.761992e+00 -2.149745e+00 6.000000e-01
         vertex -2.384622e+00 -1.856026e+00 1.726043e+00
      endloop
   endfacet
   facet normal -6.246900e-01 -6.785943e-01 3.863576e-01
      outer loop
         vertex -2.761992e+00 -2.149745e+00 6.000000e-01
         vertex -1.914319e+00 -2.930083e+00 6.000000e-01
         vertex -1.652766e+00 -2.529747e+00 1.726043e+00
      endloop
   endfacet
   facet normal -3.705035e-01 -8.446626e-01 3.863576e-01
      outer loop
         vertex -1.914319e+00 -2.930083e+00 6.000000e-01
         vertex -8.591992e-01 -3.392901e+00 6.000000e-01
         vertex -7.418071e-01 -2.929330e+00 1.726043e+00
      endloop
   endfacet
   facet normal -7.616694e-02 -9.191987e-01 3.863577e-01
      outer loop
         vertex -8.591992e-01 -3.392901e+00 6.000000e-01
         vertex 2.890277e-01 -3.488046e+00 6.000000e-01
         vertex 2.495379e-01 -3.011475e+00 1.726043e+00
      endloop
   endfacet
   facet normal 2.264233e-01 -8.941254e-01 3.863577e-01
      outer loop
         vertex 2.890277e-01 -3.488046e+00 6.000000e-01
         vertex 1.405934e+00 -3.205207e+00 6.000000e-01
         vertex 1.213842e+00 -2.767280e+00 1.726043e+00
      endloop
   endfacet
   facet normal 5.044771e-01 -7.721597e-01 3.863577e-01
      outer loop
         vertex 1.405934e+00 -3.205207e+00 6.000000e-01
         vertex 2.370486e+00 -2.575034e+00 6.000000e-01
         vertex 2.046607e+00 -2.223208e+00 1.726043e+00
      endloop
   endfacet
   facet normal 7.278630e-01 -5.665185e-01 3.863577e-01
      outer loop
         vertex 2.370486e+00 -2.575034e+00 6.000000e-01
         vertex 3.078158e+00 -1.665816e+00 6.000000e-01
         vertex 2.657590e+00 -1.438216e+00 1.726043e+00
      endloop
   endfacet
   facet normal 8.723736e-01 -2.994862e-01 3.863577e-01
      outer loop
         vertex 3.078158e+00 -1.665816e+00 6.000000e-01
         vertex 3.452265e+00 -5.760810e-01 6.000000e-01
         vertex 2.980583e+00 -4.973713e-01 1.726043e+00
      endloop
   endfacet
   facet normal 9.223490e-01 0.000000e+00 3.863577e-01
      outer loop
         vertex 3.452265e+00 -5.760810e-01 6.000000e-01
         vertex 3.452265e+00 5.760810e-01 6.000000e-01
         vertex 2.980583e+00 4.973713e-01 1.726043e+00
      endloop
   endfacet
   facet normal 8.723736e-01 2.994862e-01 3.863577e-01
      outer loop
         vertex 3.452265e+00 5.760810e-01 6.000000e-01
         vertex 3.078158e+00 1.665816e+00 6.000000e-01
         vertex 2.657590e+00 1.438216e+00 1.726043e+00
      endloop
   endfacet
   facet normal 7.278630e-01 5.665185e-01 3.863577e-01
      outer loop
         vertex 3.078158e+00 1.665816e+00 6.000000e-01
         vertex 2.370486e+00 2.575034e+00 6.000000e-01
         vertex 2.046607e+00 2.223208e+00 1.726043e+00
      endloop
   endfacet
   facet normal 5.044771e-01 7.721597e-01 3.863577e-01
      outer loop
         vertex 2.370486e+00 2.575034e+00 6.000000e-01
         vertex 1.405934e+00 3.205207e+00 6.000000e-01
         vertex 1.213842e+00 2.767280e+00 1.726043e+00
      endloop
   endfacet
   facet normal 2.264233e-01 8.941254e-01 3.863577e-01
      outer loop
         vertex 1.405934e+00 3.205207e+00 6.000000e-01
         vertex 2.890277e-01 3.488046e+00 6.000000e-01
         vertex 2.495379e-01 3.011475e+00 1.726043e+00
      endloop
   endfacet
   facet normal -7.616694e-02 9.191988e-01 3.863576e-01
      outer loop
         vertex 2.890277e-01 3.488046e+00 6.000000e-01
         vertex -8.591992e-01 3.392901e+00 6.000000e-01
         vertex -7.418071e-01 2.929330e+00 1.726043e+00
      endloop
   endfacet
   facet normal -3.705035e-01 8.446627e-01 3.863576e-01
      outer loop
         vertex -8.591992e-01 3.392901e+00 6.000000e-01
         vertex -1.914319e+00 2.930083e+00 6.000000e-01
         vertex -1.652766e+00 2.529747e+00 1.726043e+00
      endloop
   endfacet
   facet normal -6.246900e-01 6.785943e-01 3.863576e-01
      outer loop
         vertex -1.914319e+00 2.930083e+00 6.000000e-01
         vertex -2.761992e+00 2.149745e+00 6.000000e-01
         vertex -2.384622e+00 1.856026e+00 1.726043e+00
      endloop
   endfacet
   facet normal -8.111817e-01 4.389897e-01 3.863577e-01
      outer loop
         vertex -2.761992e+00 2.149745e+00 6.000000e-01
         vertex -3.310360e+00 1.136448e+00 6.000000e-01
         vertex -2.858067e+00 9.811756e-01 1.726043e+00
      endloop
   endfacet
   facet normal -9.097694e-01 1.518136e-01 3.863576e-01
      outer loop
         vertex -3.310360e+00 1.136448e+00 6.000000e-01
         vertex -3.500000e+00 -3.673941e-17 6.000000e-01
         vertex -3.021796e+00 -4.757529e-16 1.726043e+00
      endloop
   endfacet
   facet normal -7.532228e-01 1.256907e-01 6.456448e-01
      outer loop
         vertex -3.021796e+00 -4.757529e-16 1.726043e+00
         vertex -2.225615e+00 -4.351240e-16 2.654884e+00
         vertex -2.105025e+00 7.226561e-01 2.654884e+00
      endloop
   endfacet
   facet normal -5.250034e-01 8.760751e-02 8.465792e-01
      outer loop
         vertex -2.225615e+00 -4.351240e-16 2.654884e+00
         vertex -1.185932e+00 -3.472795e-16 3.299640e+00
         vertex -1.121675e+00 3.850715e-01 3.299640e+00
      endloop
   endfacet
   facet normal -2.453109e-01 4.093512e-02 9.685798e-01
      outer loop
         vertex -1.185932e+00 -3.472795e-16 3.299640e+00
         vertex 6.138390e-16 -2.204364e-16 3.600000e+00
         vertex -1.121675e+00 3.850715e-01 3.299640e+00
      endloop
   endfacet
   facet normal 0.000000e+00 0.000000e+00 -0.000000e+00
      outer loop
         vertex 6.138390e-16 -2.204364e-16 3.600000e+00
         vertex 6.138390e-16 -2.204364e-16 3.600000e+00
         vertex -1.121675e+00 3.850715e-01 3.299640e+00
      endloop
   endfacet
   facet normal 0.000000e+00 0.000000e+00 -0.000000e+00
      outer loop
         vertex 6.138390e-16 -2.204364e-16 3.600000e+00
         vertex 6.138390e-16 -2.204364e-16 3.600000e+00
         vertex -9.358671e-01 7.284146e-01 3.299640e+00
      endloop
   endfacet
   facet normal 0.000000e+00 0.000000e+00 -0.000000e+00
      outer loop
         vertex 6.138390e-16 -2.204364e-16 3.600000e+00
         vertex 6.138390e-16 -2.204364e-16 3.600000e+00
         vertex -6.486434e-01 9.928226e-01 3.299640e+00
      endloop
   endfacet
   facet normal 0.000000e+00 0.000000e+00 -0.000000e+00
      outer loop
         vertex 6.138390e-16 -2.204364e-16 3.600000e+00
         vertex 6.138390e-16 -2.204364e-16 3.600000e+00
         vertex -2.911291e-01 1.149643e+00 3.299640e+00
      endloop
   endfacet
   facet normal 0.000000e+00 -0.000000e+00 0.000000e+00
      outer loop
         vertex 6.138390e-16 -2.204364e-16 3.600000e+00
         vertex 6.138390e-16 -2.204364e-16 3.600000e+00
         vertex 9.793350e-02 1.181882e+00 3.299640e+00
      endloop
   endfacet
   facet normal 0.000000e+00 -0.000000e+00 0.000000e+00
      outer loop
         vertex 6.138390e-16 -2.204364e-16 3.600000e+00
         vertex 6.138390e-16 -2.204364e-16 3.600000e+00
         vertex 4.763835e-01 1.086045e+00 3.299640e+00
      endloop
   endfacet
   facet normal 0.000000e+00 -0.000000e+00 0.000000e+00
      outer loop
         vertex 6.138390e-16 -2.204364e-16 3.600000e+00
         vertex 6.138390e-16 -2.204364e-16 3.600000e+00
         vertex 8.032100e-01 8.725187e-01 3.299640e+00
      endloop
   endfacet
   facet normal 0.000000e+00 -0.000000e+00 0.000000e+00
      outer loop
         vertex 6.138390e-16 -2.204364e-16 3.600000e+00
         vertex 6.138390e-16 -2.204364e-16 3.600000e+00
         vertex 1.042996e+00 5.644413e-01 3.299640e+00
      endloop
   endfacet
   facet normal 0.000000e+00 -0.000000e+00 0.000000e+00
      outer loop
         vertex 6.138390e-16 -2.204364e-16 3.600000e+00
         vertex 6.138390e-16 -2.204364e-16 3.600000e+00
         vertex 1.169758e+00 1.951980e-01 3.299640e+00
      endloop
   endfacet
   facet normal 0.000000e+00 -0.000000e+00 0.000000e+00
      outer loop
         vertex 6.138390e-16 -2.204364e-16 3.600000e+00
         vertex 6.138390e-16 -2.204364e-16 3.600000e+00
         vertex 1.169758e+00 -1.951980e-01 3.299640e+00
      endloop
   endfacet
   facet normal 0.000000e+00 -0.000000e+00 0.000000e+00
      outer loop
         vertex 6.138390e-16 -2.204364e-16 3.600000e+00
         vertex 6.138390e-16 -2.204364e-16 3.600000e+00
         vertex 1.042996e+00 -5.644413e-01 3.299640e+00
      endloop
   endfacet
   facet normal 0.000000e+00 -0.000000e+00 0.000000e+00
      outer loop
         vertex 6.138390e-16 -2.204364e-16 3.600000e+00
         vertex 6.138390e-16 -2.204364e-16 3.600000e+00
         vertex 8.032100e-01 -8.725187e-01 3.299640e+00
      endloop
   endfacet
   facet normal 0.000000e+00 -0.000000e+00 0.000000e+00
      outer loop
         vertex 6.138390e-16 -2.204364e-16 3.600000e+00
         vertex 6.138390e-16 -2.204364e-16 3.600000e+00
         vertex 4.763835e-01 -1.086045e+00 3.299640e+00
      endloop
   endfacet
   facet normal 0.000000e+00 -0.000000e+00 0.000000e+00
      outer loop
         vertex 6.138390e-16 -2.204364e-16 3.600000e+00
         vertex 6.138390e-16 -2.204364e-16 3.600000e+00
         vertex 9.793350e-02 -1.181882e+00 3.299640e+00
      endloop
   endfacet
   facet normal 0.000000e+00 0.000000e+00 0.000000e+00
      outer loop
         vertex 6.138390e-16 -2.204364e-16 3.600000e+00
         vertex 6.138390e-16 -2.204364e-16 3.600000e+00
         vertex -2.911291e-01 -1.149643e+00 3.299640e+00
      endloop
   endfacet
   facet normal 0.000000e+00 0.000000e+00 0.000000e+00
      outer loop
         vertex 6.138390e-16 -2.204364e-16 3.600000e+00
         vertex 6.138390e-16 -2.204364e-16 3.600000e+00
         vertex -6.486434e-01 -9.928226e-01 3.299640e+00
      endloop
   endfacet
   facet normal 0.000000e+00 0.000000e+00 0.000000e+00
      outer loop
         vertex 6.138390e-16 -2.204364e-16 3.600000e+00
         vertex 6.138390e-16 -2.204364e-16 3.600000e+00
         vertex -9.358671e-01 -7.284146e-01 3.299640e+00
      endloop
   endfacet
   facet normal 0.000000e+00 0.000000e+00 0.000000e+00
      outer loop
         vertex 6.138390e-16 -2.204364e-16 3.600000e+00
         vertex 6.138390e-16 -2.204364e-16 3.600000e+00
         vertex -1.121675e+00 -3.850715e-01 3.299640e+00
      endloop
   endfacet
   facet normal 0.000000e+00 0.000000e+00 0.000000e+00
      outer loop
         vertex 6.138390e-16 -2.204364e-16 3.600000e+00
         vertex 6.138390e-16 -2.204364e-16 3.600000e+00
         vertex -1.185932e+00 -3.472795e-16 3.299640e+00
      endloop
   endfacet
   facet normal -5.250034e-01 -8.760751e-02 8.465792e-01
      outer loop
         vertex -1.185932e+00 -3.472795e-16 3.299640e+00
         vertex -2.225615e+00 -4.351240e-16 2.654884e+00
         vertex -1.121675e+00 -3.850715e-01 3.299640e+00
      endloop
   endfacet
   facet normal -7.532228e-01 -1.256907e-01 6.456448e-01
      outer loop
         vertex -2.225615e+00 -4.351240e-16 2.654884e+00
         vertex -3.021796e+00 -4.757529e-16 1.726043e+00
         vertex -2.105025e+00 -7.226561e-01 2.654884e+00
      endloop
   endfacet
   facet normal -2.187277e-01 1.183695e-01 9.685798e-01
      outer loop
         vertex -9.358671e-01 7.284146e-01 3.299640e+00
         vertex -1.121675e+00 3.850715e-01 3.299640e+00
         vertex 6.138390e-16 -2.204364e-16 3.600000e+00
      endloop
   endfacet
   facet normal -1.684419e-01 1.829767e-01 9.685798e-01
      outer loop
         vertex -6.486434e-01 9.928226e-01 3.299640e+00
         vertex -9.358671e-01 7.284146e-01 3.299640e+00
         vertex 6.138390e-16 -2.204364e-16 3.600000e+00
      endloop
   endfacet
   facet normal -9.990282e-02 2.277555e-01 9.685798e-01
      outer loop
         vertex -2.911291e-01 1.149643e+00 3.299640e+00
         vertex -6.486434e-01 9.928226e-01 3.299640e+00
         vertex 6.138390e-16 -2.204364e-16 3.600000e+00
      endloop
   endfacet
   facet normal -2.053777e-02 2.478535e-01 9.685798e-01
      outer loop
         vertex 9.793350e-02 1.181882e+00 3.299640e+00
         vertex -2.911291e-01 1.149643e+00 3.299640e+00
         vertex 6.138390e-16 -2.204364e-16 3.600000e+00
      endloop
   endfacet
   facet normal 6.105300e-02 2.410927e-01 9.685798e-01
      outer loop
         vertex 4.763835e-01 1.086045e+00 3.299640e+00
         vertex 9.793350e-02 1.181882e+00 3.299640e+00
         vertex 6.138390e-16 -2.204364e-16 3.600000e+00
      endloop
   endfacet
   facet normal 1.360276e-01 2.082058e-01 9.685798e-01
      outer loop
         vertex 8.032100e-01 8.725187e-01 3.299640e+00
         vertex 4.763835e-01 1.086045e+00 3.299640e+00
         vertex 6.138390e-16 -2.204364e-16 3.600000e+00
      endloop
   endfacet
   facet normal 1.962616e-01 1.527565e-01 9.685798e-01
      outer loop
         vertex 1.042996e+00 5.644413e-01 3.299640e+00
         vertex 8.032100e-01 8.725187e-01 3.299640e+00
         vertex 6.138390e-16 -2.204364e-16 3.600000e+00
      endloop
   endfacet
   facet normal -5.250035e-01 8.760758e-02 8.465792e-01
      outer loop
         vertex -1.121675e+00 3.850715e-01 3.299640e+00
         vertex -2.105025e+00 7.226561e-01 2.654884e+00
         vertex -2.225615e+00 -4.351240e-16 2.654884e+00
      endloop
   endfacet
   facet normal -7.532228e-01 1.256906e-01 6.456449e-01
      outer loop
         vertex -2.105025e+00 7.226561e-01 2.654884e+00
         vertex -2.858067e+00 9.811756e-01 1.726043e+00
         vertex -3.021796e+00 -4.757529e-16 1.726043e+00
      endloop
   endfacet
   facet normal -8.111818e-01 4.389897e-01 3.863576e-01
      outer loop
         vertex -2.858067e+00 9.811756e-01 1.726043e+00
         vertex -2.384622e+00 1.856026e+00 1.726043e+00
         vertex -2.761992e+00 2.149745e+00 6.000000e-01
      endloop
   endfacet
   facet normal -6.246901e-01 6.785942e-01 3.863576e-01
      outer loop
         vertex -2.384622e+00 1.856026e+00 1.726043e+00
         vertex -1.652766e+00 2.529747e+00 1.726043e+00
         vertex -1.914319e+00 2.930083e+00 6.000000e-01
      endloop
   endfacet
   facet normal -3.705034e-01 8.446627e-01 3.863576e-01
      outer loop
         vertex -1.652766e+00 2.529747e+00 1.726043e+00
         vertex -7.418071e-01 2.929330e+00 1.726043e+00
         vertex -8.591992e-01 3.392901e+00 6.000000e-01
      endloop
   endfacet
   facet normal -7.616678e-02 9.191987e-01 3.863578e-01
      outer loop
         vertex -7.418071e-01 2.929330e+00 1.726043e+00
         vertex 2.495379e-01 3.011475e+00 1.726043e+00
         vertex 2.890277e-01 3.488046e+00 6.000000e-01
      endloop
   endfacet
   facet normal 2.264232e-01 8.941254e-01 3.863577e-01
      outer loop
         vertex 2.495379e-01 3.011475e+00 1.726043e+00
         vertex 1.213842e+00 2.767280e+00 1.726043e+00
         vertex 1.405934e+00 3.205207e+00 6.000000e-01
      endloop
   endfacet
   facet normal 5.044771e-01 7.721597e-01 3.863577e-01
      outer loop
         vertex 1.213842e+00 2.767280e+00 1.726043e+00
         vertex 2.046607e+00 2.223208e+00 1.726043e+00
         vertex 2.370486e+00 2.575034e+00 6.000000e-01
      endloop
   endfacet
   facet normal 7.278630e-01 5.665185e-01 3.863577e-01
      outer loop
         vertex 2.046607e+00 2.223208e+00 1.726043e+00
         vertex 2.657590e+00 1.438216e+00 1.726043e+00
         vertex 3.078158e+00 1.665816e+00 6.000000e-01
      endloop
   endfacet
   facet normal 2.352275e-01 8.075374e-02 9.685798e-01
      outer loop
         vertex 1.169758e+00 1.951980e-01 3.299640e+00
         vertex 1.042996e+00 5.644413e-01 3.299640e+00
         vertex 6.138390e-16 -2.204364e-16 3.600000e+00
      endloop
   endfacet
   facet normal 2.487029e-01 0.000000e+00 9.685798e-01
      outer loop
         vertex 1.169758e+00 -1.951980e-01 3.299640e+00
         vertex 1.169758e+00 1.951980e-01 3.299640e+00
         vertex 6.138390e-16 -2.204364e-16 3.600000e+00
      endloop
   endfacet
   facet normal 2.352275e-01 -8.075374e-02 9.685798e-01
      outer loop
         vertex 1.042996e+00 -5.644413e-01 3.299640e+00
         vertex 1.169758e+00 -1.951980e-01 3.299640e+00
         vertex 6.138390e-16 -2.204364e-16 3.600000e+00
      endloop
   endfacet
   facet normal 1.962616e-01 -1.527565e-01 9.685798e-01
      outer loop
         vertex 8.032100e-01 -8.725187e-01 3.299640e+00
         vertex 1.042996e+00 -5.644413e-01 3.299640e+00
         vertex 6.138390e-16 -2.204364e-16 3.600000e+00
      endloop
   endfacet
   facet normal 1.360276e-01 -2.082058e-01 9.685798e-01
      outer loop
         vertex 4.763835e-01 -1.086045e+00 3.299640e+00
         vertex 8.032100e-01 -8.725187e-01 3.299640e+00
         vertex 6.138390e-16 -2.204364e-16 3.600000e+00
      endloop
   endfacet
   facet normal 6.105300e-02 -2.410927e-01 9.685798e-01
      outer loop
         vertex 9.793350e-02 -1.181882e+00 3.299640e+00
         vertex 4.763835e-01 -1.086045e+00 3.299640e+00
         vertex 6.138390e-16 -2.204364e-16 3.600000e+00
      endloop
   endfacet
   facet normal -2.053777e-02 -2.478535e-01 9.685798e-01
      outer loop
         vertex -2.911291e-01 -1.149643e+00 3.299640e+00
         vertex 9.793350e-02 -1.181882e+00 3.299640e+00
         vertex 6.138390e-16 -2.204364e-16 3.600000e+00
      endloop
   endfacet
   facet normal -9.990282e-02 -2.277555e-01 9.685798e-01
      outer loop
         vertex -6.486434e-01 -9.928226e-01 3.299640e+00
         vertex -2.911291e-01 -1.149643e+00 3.299640e+00
         vertex 6.138390e-16 -2.204364e-16 3.600000e+00
      endloop
   endfacet
   facet normal 8.723736e-01 2.994862e-01 3.863577e-01
      outer loop
         vertex 2.657590e+00 1.438216e+00 1.726043e+00
         vertex 2.980583e+00 4.973713e-01 1.726043e+00
         vertex 3.452265e+00 5.760810e-01 6.000000e-01
      endloop
   endfacet
   facet normal 9.223490e-01 -0.000000e+00 3.863577e-01
      outer loop
         vertex 2.980583e+00 4.973713e-01 1.726043e+00
         vertex 2.980583e+00 -4.973713e-01 1.726043e+00
         vertex 3.452265e+00 -5.760810e-01 6.000000e-01
      endloop
   endfacet
   facet normal 8.723736e-01 -2.994862e-01 3.863577e-01
      outer loop
         vertex 2.980583e+00 -4.973713e-01 1.726043e+00
         vertex 2.657590e+00 -1.438216e+00 1.726043e+00
         vertex 3.078158e+00 -1.665816e+00 6.000000e-01
      endloop
   endfacet
   facet normal 7.278630e-01 -5.665185e-01 3.863577e-01
      outer loop
         vertex 2.657590e+00 -1.438216e+00 1.726043e+00
         vertex 2.046607e+00 -2.223208e+00 1.726043e+00
         vertex 2.370486e+00 -2.575034e+00 6.000000e-01
      endloop
   endfacet
   facet normal 5.044771e-01 -7.721597e-01 3.863577e-01
      outer loop
         vertex 2.046607e+00 -2.223208e+00 1.726043e+00
         vertex 1.213842e+00 -2.767280e+00 1.726043e+00
         vertex 1.405934e+00 -3.205207e+00 6.000000e-01
      endloop
   endfacet
   facet normal 2.264232e-01 -8.941254e-01 3.863577e-01
      outer loop
         vertex 1.213842e+00 -2.767280e+00 1.726043e+00
         vertex 2.495379e-01 -3.011475e+00 1.726043e+00
         vertex 2.890277e-01 -3.488046e+00 6.000000e-01
      endloop
   endfacet
   facet normal -7.616678e-02 -9.191988e-01 3.863576e-01
      outer loop
         vertex 2.495379e-01 -3.011475e+00 1.726043e+00
         vertex -7.418071e-01 -2.929330e+00 1.726043e+00
         vertex -8.591992e-01 -3.392901e+00 6.000000e-01
      endloop
   endfacet
   facet normal -3.705034e-01 -8.446627e-01 3.863576e-01
      outer loop
         vertex -7.418071e-01 -2.929330e+00 1.726043e+00
         vertex -1.652766e+00 -2.529747e+00 1.726043e+00
         vertex -1.914319e+00 -2.930083e+00 6.000000e-01
      endloop
   endfacet
   facet normal -1.684419e-01 -1.829767e-01 9.685798e-01
      outer loop
         vertex -9.358671e-01 -7.284146e-01 3.299640e+00
         vertex -6.486434e-01 -9.928226e-01 3.299640e+00
         vertex 6.138390e-16 -2.204364e-16 3.600000e+00
      endloop
   endfacet
   facet normal -2.187277e-01 -1.183695e-01 9.685798e-01
      outer loop
         vertex -1.121675e+00 -3.850715e-01 3.299640e+00
         vertex -9.358671e-01 -7.284146e-01 3.299640e+00
         vertex 6.138390e-16 -2.204364e-16 3.600000e+00
      endloop
   endfacet
   facet normal -5.250035e-01 -8.760758e-02 8.465792e-01
      outer loop
         vertex -2.105025e+00 -7.226561e-01 2.654884e+00
         vertex -1.121675e+00 -3.850715e-01 3.299640e+00
         vertex -2.225615e+00 -4.351240e-16 2.654884e+00
      endloop
   endfacet
   facet normal -7.532228e-01 -1.256906e-01 6.456449e-01
      outer loop
         vertex -2.858067e+00 -9.811756e-01 1.726043e+00
         vertex -2.105025e+00 -7.226561e-01 2.654884e+00
         vertex -3.021796e+00 -4.757529e-16 1.726043e+00
      endloop
   endfacet
   facet normal -6.246900e-01 -6.785942e-01 3.863577e-01
      outer loop
         vertex -1.652766e+00 -2.529747e+00 1.726043e+00
         vertex -2.384622e+00 -1.856026e+00 1.726043e+00
         vertex -2.761992e+00 -2.149745e+00 6.000000e-01
      endloop
   endfacet
   facet normal -8.111818e-01 -4.389897e-01 3.863577e-01
      outer loop
         vertex -2.384622e+00 -1.856026e+00 1.726043e+00
         vertex -2.858067e+00 -9.811756e-01 1.726043e+00
         vertex -3.310360e+00 -1.136448e+00 6.000000e-01
      endloop
   endfacet
   facet normal -9.097694e-01 -1.518136e-01 3.863577e-01
      outer loop
         vertex -3.021796e+00 -4.757529e-16 1.726043e+00
         vertex -3.310360e+00 -1.136448e+00 6.000000e-01
         vertex -2.858067e+00 -9.811756e-01 1.726043e+00
      endloop
   endfacet
   facet normal -9.097694e-01 1.518136e-01 3.863577e-01
      outer loop
         vertex -2.858067e+00 9.811756e-01 1.726043e+00
         vertex -3.310360e+00 1.136448e+00 6.000000e-01
         vertex -3.021796e+00 -4.757529e-16 1.726043e+00
      endloop
   endfacet
   facet normal -2.453109e-01 -4.093512e-02 9.685798e-01
      outer loop
         vertex -1.121675e+00 -3.850715e-01 3.299640e+00
         vertex 6.138390e-16 -2.204364e-16 3.600000e+00
         vertex -1.185932e+00 -3.472795e-16 3.299640e+00
      endloop
   endfacet
   facet normal -8.660254e-01 -5.000000e-01 0.000000e+00
      outer loop
         vertex -5.773503e+00 2.039318e-15 0.000000e+00
         vertex -2.886751e+00 -5.000000e+00 0.000000e+00
         vertex -2.886751e+00 -5.000000e+00 6.000000e-01
      endloop
   endfacet
   facet normal -8.660254e-01 -5.000000e-01 0.000000e+00
      outer loop
         vertex -5.773503e+00 2.039318e-15 0.000000e+00
         vertex -2.886751e+00 -5.000000e+00 6.000000e-01
         vertex -5.773503e+00 2.039318e-15 6.000000e-01
      endloop
   endfacet
   facet normal 0.000000e+00 -1.000000e+00 0.000000e+00
      outer loop
         vertex -2.886751e+00 -5.000000e+00 0.000000e+00
         vertex 2.886751e+00 -5.000000e+00 0.000000e+00
         vertex 2.886751e+00 -5.000000e+00 6.000000e-01
      endloop
   endfacet
   facet normal -0.000000e+00 -1.000000e+00 0.000000e+00
      outer loop
         vertex -2.886751e+00 -5.000000e+00 0.000000e+00
         vertex 2.886751e+00 -5.000000e+00 6.000000e-01
         vertex -2.886751e+00 -5.000000e+00 6.000000e-01
      endloop
   endfacet
   facet normal 8.660254e-01 -5.000000e-01 0.000000e+00
      outer loop
         vertex 2.886751e+00 -5.000000e+00 0.000000e+00
         vertex 5.773503e+00 -3.552714e-15 0.000000e+00
         vertex 5.773503e+00 -3.552714e-15 6.000000e-01
      endloop
   endfacet
   facet normal 8.660254e-01 -5.000000e-01 0.000000e+00
      outer loop
         vertex 2.886751e+00 -5.000000e+00 0.000000e+00
         vertex 5.773503e+00 -3.552714e-15 6.000000e-01
         vertex 2.886751e+00 -5.000000e+00 6.000000e-01
      endloop
   endfacet
   facet normal 8.660254e-01 5.000000e-01 -0.000000e+00
      outer loop
         vertex 5.773503e+00 -3.815675e-15 0.000000e+00
         vertex 2.886751e+00 5.000000e+00 0.000000e+00
         vertex 2.886751e+00 5.000000e+00 6.000000e-01
      endloop
   endfacet
   facet normal 8.660254e-01 5.000000e-01 0.000000e+00
      outer loop
         vertex 5.773503e+00 -3.815675e-15 0.000000e+00
         vertex 2.886751e+00 5.000000e+00 6.000000e-01
         vertex 5.773503e+00 -3.815675e-15 6.000000e-01
      endloop
   endfacet
   facet normal 0.000000e+00 1.000000e+00 0.000000e+00
      outer loop
         vertex 2.886751e+00 5.000000e+00 0.000000e+00
         vertex -2.886751e+00 5.000000e+00 0.000000e+00
         vertex -2.886751e+00 5.000000e+00 6.000000e-01
      endloop
   endfacet
   facet normal -0.000000e+00 1.000000e+00 0.000000e+00
      outer loop
         vertex 2.886751e+00 5.000000e+00 0.000000e+00
         vertex -2.886751e+00 5.000000e+00 6.000000e-01
         vertex 2.886751e+00 5.000000e+00 6.000000e-01
      endloop
   endfacet
   facet normal -8.660254e-01 5.000000e-01 0.000000e+00
      outer loop
         vertex -2.886751e+00 5.000000e+00 0.000000e+00
         vertex -5.773503e+00 1.776357e-15 0.000000e+00
         vertex -5.773503e+00 1.776357e-15 6.000000e-01
      endloop
   endfacet
   facet normal -8.660254e-01 5.000000e-01 0.000000e+00
      outer loop
         vertex -2.886751e+00 5.000000e+00 0.000000e+00
         vertex -5.773503e+00 1.776357e-15 6.000000e-01
         vertex -2.886751e+00 5.000000e+00 6.000000e-01
      endloop
   endfacet
   facet normal 0.000000e+00 0.000000e+00 -1.000000e+00
      outer loop
         vertex -2.886751e+00 -5.000000e+00 0.000000e+00
         vertex -5.773503e+00 2.039318e-15 0.000000e+00
         vertex 2.886751e+00 -5.000000e+00 0.000000e+00
      endloop
   endfacet
   facet normal 0.000000e+00 -0.000000e+00 -1.000000e+00
      outer loop
         vertex -5.773503e+00 2.039318e-15 0.000000e+00
         vertex -2.886751e+00 5.000000e+00 0.000000e+00
         vertex 2.886751e+00 -5.000000e+00 0.000000e+00
      endloop
   endfacet
   facet normal 0.000000e+00 0.000000e+00 -1.000000e+00
      outer loop
         vertex 2.886751e+00 -5.000000e+00 0.000000e+00
         vertex -2.886751e+00 5.000000e+00 0.000000e+00
         vertex 5.773503e+00 -3.815675e-15 0.000000e+00
      endloop
   endfacet
   facet normal -0.000000e+00 -0.000000e+00 -1.000000e+00
      outer loop
         vertex -2.886751e+00 5.000000e+00 0.000000e+00
         vertex 2.886751e+00 5.000000e+00 0.000000e+00
         vertex 5.773503e+00 -3.815675e-15 0.000000e+00
      endloop
   endfacet
endsolid
